<mxfile host="app.diagrams.net" modified="2024-06-26T12:03:23.487Z" agent="Mozilla/5.0 (Windows NT 10.0; Win64; x64) AppleWebKit/537.36 (KHTML, like Gecko) Chrome/126.0.0.0 Safari/537.36" version="24.6.3" etag="v0PEfCVkVK2mh_UKGYV0" type="github">
  <diagram name="Page-1" id="4vBhbQvVe2V1tG0GlfjK">
    <mxGraphModel>
      <root>
        <mxCell id="0" />
        <mxCell id="1" parent="0" />
      </root>
    </mxGraphModel>
  </diagram>
</mxfile>
